<svg width="24" height="24" viewBox="0 0 24 24" fill="none" xmlns="http://www.w3.org/2000/svg">
<path d="M2 10.1619V14.1619C2 16.1619 3 17.1619 5 17.1619H6.43C6.8 17.1619 7.17 17.2719 7.49 17.4619L10.41 19.2919C12.93 20.8719 15 19.7219 15 16.7519V7.5719C15 4.5919 12.93 3.4519 10.41 5.0319L7.49 6.8619C7.17 7.0519 6.8 7.1619 6.43 7.1619H5C3 7.1619 2 8.1619 2 10.1619Z" stroke="#6048DE" stroke-width="1.5"/>
<path d="M18 14.609L22.853 10.1607C23.0534 9.97597 23.0495 9.68124 22.8373 9.50441L21.3244 8.24301C20.9315 7.91686 20.6092 8.06618 20.6092 8.57703V15.4224C20.6092 15.9332 20.9315 16.0826 21.3244 15.7564L22.8373 14.495C23.0495 14.3182 23.0534 14.0234 22.853 13.8388L18 9.39045" stroke="#6048DE" stroke-width="1.5" stroke-miterlimit="10" stroke-linecap="round" stroke-linejoin="round"/>
</svg>
